<svg version="1.1" id="Layer_1" xmlns="http://www.w3.org/2000/svg" xmlns:xlink="http://www.w3.org/1999/xlink" x="0px" y="0px"
	 width="100%" viewBox="0 0 500 500" enable-background="new 0 0 500 500" xml:space="preserve">
<path fill="#000000" opacity="1.000000" stroke="none" 
	d="
M456.000000,501.000000 
	C304.000031,501.000000 152.500076,501.000000 1.000081,501.000000 
	C1.000054,334.333405 1.000054,167.666824 1.000027,1.000171 
	C167.666550,1.000114 334.333099,1.000114 500.999756,1.000057 
	C500.999817,167.666519 500.999817,334.333038 500.999908,500.999756 
	C486.166656,501.000000 471.333344,501.000000 456.000000,501.000000 
M242.945786,271.951752 
	C242.945786,271.951752 242.932846,271.869690 243.447037,271.821106 
	C243.592773,271.529877 243.738510,271.238678 244.350739,270.724365 
	C244.551483,270.449768 244.752243,270.175171 245.473358,269.843597 
	C245.613922,269.546539 245.754471,269.249481 246.456573,268.638916 
	C247.619949,267.387207 248.783310,266.135498 250.458908,264.821655 
	C250.606689,264.530548 250.754471,264.239441 250.981049,263.977448 
	C250.981049,263.977448 250.945633,263.901245 251.439850,263.799438 
	C251.580109,263.512512 251.720367,263.225555 252.400589,262.685425 
	C252.916336,262.085876 253.432083,261.486328 254.462738,260.830017 
	C254.604019,260.536469 254.745316,260.242950 255.439072,259.596313 
	C256.942352,258.027405 258.445618,256.458527 260.457947,254.821960 
	C260.602753,254.531570 260.747528,254.241165 261.506317,253.629578 
	C265.488617,250.413330 264.982727,246.132156 264.945984,241.593887 
	C264.761658,218.811508 264.938873,196.026245 264.957886,173.241989 
	C264.958801,172.149368 264.663849,171.056473 264.362701,168.962524 
	C255.749863,177.519409 248.079178,185.293900 240.216949,192.869598 
	C237.391769,195.591812 236.003387,198.452835 236.140442,202.488434 
	C236.420197,210.724884 236.224243,218.977509 236.224243,227.766754 
	C234.374954,227.211182 233.252701,227.023575 232.264191,226.554276 
	C220.569794,221.002457 208.447998,220.029236 195.915634,222.983353 
	C168.122375,229.534790 150.000580,257.749725 154.569778,286.502960 
	C160.029709,320.861481 196.976990,340.682495 228.382477,329.309204 
	C238.670685,325.583374 246.178436,318.135651 253.440598,310.436615 
	C258.732849,304.826019 263.742126,298.948517 268.877594,293.190002 
	C271.699249,295.585052 273.079559,296.527313 274.233429,297.693573 
	C284.878754,308.453064 295.440491,319.295929 306.162720,329.977844 
	C307.407837,331.218292 309.460114,332.267395 311.171082,332.319244 
	C320.976624,332.616150 330.792084,332.613678 340.604370,332.644196 
	C342.960083,332.651550 345.316559,332.398407 348.765625,332.203217 
	C328.730438,312.200043 309.607910,293.108093 290.280884,273.811951 
	C306.409546,257.183960 322.326782,240.773987 339.017487,224.450806 
	C339.709106,223.665405 340.400726,222.880005 341.958740,221.110718 
	C328.320068,221.110718 316.202209,221.064758 304.086182,221.191299 
	C303.030701,221.202332 301.987061,222.348450 300.404968,223.218582 
	C299.969086,223.614655 299.533203,224.010727 298.497711,224.387878 
	C297.817841,225.296326 297.137970,226.204773 296.013336,227.557785 
	C295.316498,228.324631 294.619659,229.091476 293.304962,229.943497 
	C292.824371,230.590332 292.343781,231.237167 291.970795,231.996964 
	C291.970795,231.996964 291.888306,231.864624 291.283173,231.981598 
	C290.802887,232.625198 290.322601,233.268814 289.285370,234.316391 
	C287.446075,236.206375 285.606750,238.096375 283.886902,239.869171 
	C283.886902,239.869171 283.890076,239.934204 283.291626,240.290573 
	C283.175018,240.491333 283.058441,240.692108 282.343109,241.044052 
	C281.858368,241.676025 281.373627,242.308014 280.320587,243.316422 
	C279.202820,244.451859 278.085022,245.587296 276.716583,246.540421 
	C276.716583,246.540421 276.495850,246.758316 276.495850,246.758316 
	C276.495850,246.758316 276.662323,247.020157 276.036072,247.394073 
	C259.737915,263.771851 243.449020,280.158844 227.137924,296.523712 
	C218.448608,305.241638 206.901276,306.776031 195.783096,300.747650 
	C186.084381,295.488892 180.339706,282.876862 182.602036,271.950745 
	C186.191010,254.617401 204.237320,244.105240 222.341782,253.246857 
	C222.341782,253.246857 222.648529,253.400620 222.648529,253.400620 
	C222.648529,253.400620 222.954727,253.245895 223.502380,253.742386 
	C230.699249,259.024597 235.417587,265.809113 236.096497,275.553101 
	C238.091934,279.822540 238.574326,274.894165 240.395187,274.644135 
	C240.908539,274.046631 241.421890,273.449127 242.436020,272.787689 
	C242.579071,272.502350 242.722122,272.217010 242.945786,271.951752 
z"/>
<path fill="#FAF9F9" opacity="1.000000" stroke="none" 
	d="
M253.947830,260.886749 
	C253.432083,261.486328 252.916336,262.085876 251.879486,262.852844 
	C251.220810,263.313934 251.083221,263.607605 250.945648,263.901245 
	C250.945633,263.901245 250.981049,263.977448 250.692688,264.007141 
	C250.251785,264.319122 250.099228,264.601440 249.946686,264.883789 
	C248.783310,266.135498 247.619949,267.387207 245.924927,268.837891 
	C245.246521,269.324768 245.099747,269.612671 244.952988,269.900574 
	C244.752243,270.175171 244.551483,270.449768 243.867203,270.871368 
	C243.233383,271.302124 243.083099,271.585907 242.932831,271.869690 
	C242.932846,271.869690 242.945786,271.951752 242.655899,271.975128 
	C242.222427,272.282898 242.078842,272.567261 241.935242,272.851624 
	C241.421890,273.449127 240.908539,274.046631 239.776794,274.778625 
	C238.214890,274.909363 237.271347,274.905609 236.327820,274.901855 
	C235.417587,265.809113 230.699249,259.024597 223.171814,253.339355 
	C222.639877,252.771759 222.435104,252.767319 222.226929,252.923019 
	C204.237320,244.105240 186.191010,254.617401 182.602036,271.950745 
	C180.339706,282.876862 186.084381,295.488892 195.783096,300.747650 
	C206.901276,306.776031 218.448608,305.241638 227.137924,296.523712 
	C243.449020,280.158844 259.737915,263.771851 276.447754,247.228119 
	C276.859436,247.062164 276.967255,246.722733 276.967255,246.722733 
	C278.085022,245.587296 279.202820,244.451859 280.947174,243.127029 
	C282.029785,242.256042 282.485809,241.574448 282.941864,240.892868 
	C283.058441,240.692108 283.175018,240.491333 283.566467,240.107635 
	C283.841339,239.924713 283.767426,239.986359 283.767426,239.986359 
	C285.606750,238.096375 287.446075,236.206375 289.910980,234.134399 
	C290.987152,233.256470 291.437744,232.560547 291.888306,231.864624 
	C291.888306,231.864624 291.970795,231.996964 292.262390,231.968994 
	C293.010284,231.246796 293.466553,230.552551 293.922791,229.858307 
	C294.619659,229.091476 295.316498,228.324631 296.556763,227.364639 
	C297.765900,226.249924 298.431610,225.328369 299.097321,224.406799 
	C299.533203,224.010727 299.969086,223.614655 301.045471,223.101807 
	C313.066956,222.972366 324.448120,222.930878 335.828522,223.008133 
	C336.636719,223.013626 337.438965,223.891663 338.243988,224.363998 
	C322.326782,240.773987 306.409546,257.183960 290.280884,273.811951 
	C309.607910,293.108093 328.730438,312.200043 348.765625,332.203217 
	C345.316559,332.398407 342.960083,332.651550 340.604370,332.644196 
	C330.792084,332.613678 320.976624,332.616150 311.171082,332.319244 
	C309.460114,332.267395 307.407837,331.218292 306.162720,329.977844 
	C295.440491,319.295929 284.878754,308.453064 274.233429,297.693573 
	C273.079559,296.527313 271.699249,295.585052 268.877594,293.190002 
	C263.742126,298.948517 258.732849,304.826019 253.440598,310.436615 
	C246.178436,318.135651 238.670685,325.583374 228.382477,329.309204 
	C196.976990,340.682495 160.029709,320.861481 154.569778,286.502960 
	C150.000580,257.749725 168.122375,229.534790 195.915634,222.983353 
	C208.447998,220.029236 220.569794,221.002457 232.264191,226.554276 
	C233.252701,227.023575 234.374954,227.211182 236.224243,227.766754 
	C236.224243,218.977509 236.420197,210.724884 236.140442,202.488434 
	C236.003387,198.452835 237.391769,195.591812 240.216949,192.869598 
	C248.079178,185.293900 255.749863,177.519409 264.362701,168.962524 
	C264.663849,171.056473 264.958801,172.149368 264.957886,173.241989 
	C264.938873,196.026245 264.761658,218.811508 264.945984,241.593887 
	C264.982727,246.132156 265.488617,250.413330 260.948608,253.828522 
	C260.243561,254.314865 260.096222,254.602249 259.948883,254.889633 
	C258.445618,256.458527 256.942352,258.027405 254.915359,259.816528 
	C254.243698,260.320068 254.095764,260.603424 253.947830,260.886749 
z"/>
<path fill="#CBC8C8" opacity="1.000000" stroke="none" 
	d="
M338.630737,224.407410 
	C337.438965,223.891663 336.636719,223.013626 335.828522,223.008133 
	C324.448120,222.930878 313.066956,222.972366 301.311951,222.976166 
	C301.987061,222.348450 303.030701,221.202332 304.086182,221.191299 
	C316.202209,221.064758 328.320068,221.110718 341.958740,221.110718 
	C340.400726,222.880005 339.709106,223.665405 338.630737,224.407410 
z"/>
<path fill="#C0B9B9" opacity="1.000000" stroke="none" 
	d="
M236.212158,275.227478 
	C237.271347,274.905609 238.214890,274.909363 239.516022,274.922424 
	C238.574326,274.894165 238.091934,279.822540 236.212158,275.227478 
z"/>
<path fill="#CBC8C8" opacity="1.000000" stroke="none" 
	d="
M298.797516,224.397339 
	C298.431610,225.328369 297.765900,226.249924 296.779114,227.142349 
	C297.137970,226.204773 297.817841,225.296326 298.797516,224.397339 
z"/>
<path fill="#CBC8C8" opacity="1.000000" stroke="none" 
	d="
M293.613892,229.900909 
	C293.466553,230.552551 293.010284,231.246796 292.208618,231.912521 
	C292.343781,231.237167 292.824371,230.590332 293.613892,229.900909 
z"/>
<path fill="#CBC8C8" opacity="1.000000" stroke="none" 
	d="
M291.585754,231.923111 
	C291.437744,232.560547 290.987152,233.256470 290.189453,233.932419 
	C290.322601,233.268814 290.802887,232.625198 291.585754,231.923111 
z"/>
<path fill="#CBC8C8" opacity="1.000000" stroke="none" 
	d="
M282.642487,240.968460 
	C282.485809,241.574448 282.029785,242.256042 281.231323,242.938812 
	C281.373627,242.308014 281.858368,241.676025 282.642487,240.968460 
z"/>
<path fill="#CBC8C8" opacity="1.000000" stroke="none" 
	d="
M283.827148,239.927765 
	C283.767426,239.986359 283.841339,239.924713 283.865723,239.929459 
	C283.890076,239.934204 283.886902,239.869171 283.827148,239.927765 
z"/>
<path fill="#CBC8C8" opacity="1.000000" stroke="none" 
	d="
M276.841919,246.631577 
	C276.967255,246.722733 276.859436,247.062164 276.760864,247.041168 
	C276.662323,247.020157 276.495850,246.758316 276.495850,246.758316 
	C276.495850,246.758316 276.716583,246.540421 276.841919,246.631577 
z"/>
<path fill="#D1CDCE" opacity="1.000000" stroke="none" 
	d="
M222.284363,253.084930 
	C222.435104,252.767319 222.639877,252.771759 222.897980,253.091110 
	C222.954727,253.245895 222.648529,253.400620 222.648529,253.400620 
	C222.648529,253.400620 222.341782,253.246857 222.284363,253.084930 
z"/>
<path fill="#C0B9B9" opacity="1.000000" stroke="none" 
	d="
M260.203430,254.855804 
	C260.096222,254.602249 260.243561,254.314865 260.641602,253.989120 
	C260.747528,254.241165 260.602753,254.531570 260.203430,254.855804 
z"/>
<path fill="#C0B9B9" opacity="1.000000" stroke="none" 
	d="
M254.205292,260.858398 
	C254.095764,260.603424 254.243698,260.320068 254.639130,259.993073 
	C254.745316,260.242950 254.604019,260.536469 254.205292,260.858398 
z"/>
<path fill="#C0B9B9" opacity="1.000000" stroke="none" 
	d="
M251.192749,263.850342 
	C251.083221,263.607605 251.220810,263.313934 251.609512,262.979462 
	C251.720367,263.225555 251.580109,263.512512 251.192749,263.850342 
z"/>
<path fill="#C0B9B9" opacity="1.000000" stroke="none" 
	d="
M250.202789,264.852722 
	C250.099228,264.601440 250.251785,264.319122 250.653290,263.992554 
	C250.754471,264.239441 250.606689,264.530548 250.202789,264.852722 
z"/>
<path fill="#C0B9B9" opacity="1.000000" stroke="none" 
	d="
M245.213165,269.872070 
	C245.099747,269.612671 245.246521,269.324768 245.644165,268.994629 
	C245.754471,269.249481 245.613922,269.546539 245.213165,269.872070 
z"/>
<path fill="#C0B9B9" opacity="1.000000" stroke="none" 
	d="
M243.189941,271.845398 
	C243.083099,271.585907 243.233383,271.302124 243.633942,270.982910 
	C243.738510,271.238678 243.592773,271.529877 243.189941,271.845398 
z"/>
<path fill="#C0B9B9" opacity="1.000000" stroke="none" 
	d="
M242.185638,272.819641 
	C242.078842,272.567261 242.222427,272.282898 242.615601,271.965088 
	C242.722122,272.217010 242.579071,272.502350 242.185638,272.819641 
z"/>
</svg>